<?xml version="1.0" encoding="utf-8"?>
<!-- Generator: Adobe Illustrator 27.1.0, SVG Export Plug-In . SVG Version: 6.00 Build 0)  -->
<svg version="1.1" id="Layer_1" xmlns="http://www.w3.org/2000/svg" xmlns:xlink="http://www.w3.org/1999/xlink" x="0px" y="0px"
	 viewBox="0 0 149 37.7" style="enable-background:new 0 0 149 37.7;" xml:space="preserve">
<style type="text/css">
	.st0{fill:#FFFFFF;}
</style>
<g>
	<path class="st0" d="M113.2,37.4c-0.1,0-0.3-0.1-0.4-0.1c-1.2-0.3-2-1.3-2-2.6c0-10.6,0-21.2,0-31.8c0-1.5,1.2-2.7,2.7-2.7
		c10.6,0,21.3,0,31.9,0c1.4,0,2.5,1,2.6,2.4c0,0.3,0,0.6,0,0.9c0,10.3,0,20.7,0,31c0,1.4-0.7,2.4-1.9,2.8c-0.2,0.1-0.4,0.1-0.6,0.2
		C134.8,37.4,124,37.4,113.2,37.4z M130.7,16.5c0-0.7,0-1.4,0-2c0-0.3-0.1-0.4-0.4-0.4c-1.6,0-3.1,0-4.7,0c-0.3,0-0.4,0.1-0.4,0.4
		c0,5.7,0,11.4,0,17.2c0,0.3,0.1,0.4,0.4,0.4c1.6,0,3.2,0,4.8,0c0.3,0,0.4-0.1,0.4-0.4c0-2.7,0-5.4,0-8.1c0-0.7,0.1-1.5,0.2-2.2
		c0.2-1.1,0.8-2.1,2-2.4c0.2-0.1,0.5-0.1,0.7-0.1c1.4-0.1,2.6,0.3,3,1.9c0.2,0.7,0.2,1.4,0.2,2.1c0,3,0,5.9,0,8.9
		c0,0.4,0,0.4,0.4,0.4c1.6,0,3.2,0,4.8,0c0.3,0,0.4-0.1,0.4-0.4c0-3.5,0-7,0-10.5c0-1.1-0.1-2.2-0.4-3.3c-0.5-1.8-1.5-3.1-3.3-3.7
		c-0.7-0.2-1.5-0.3-2.2-0.4c-1.5-0.2-2.9,0.1-4.1,0.9C131.8,15,131.2,15.6,130.7,16.5z M121.9,23c0-2.9,0-5.7,0-8.6
		c0-0.3-0.1-0.4-0.4-0.4c-1.6,0-3.3,0-4.9,0c-0.3,0-0.4,0.1-0.4,0.4c0,5.7,0,11.4,0,17.1c0,0.3,0.1,0.4,0.4,0.4c1.6,0,3.2,0,4.8,0
		c0.3,0,0.4-0.1,0.4-0.4C121.9,28.7,121.9,25.9,121.9,23z M115.9,8.5c-0.1,1.5,1.2,3.2,3.2,3.2c1.8,0,3.2-1.4,3.3-3.2
		c0-1.8-1.4-3.2-3.2-3.2C117.2,5.2,115.8,6.9,115.9,8.5z"/>
	<path class="st0" d="M0.9,5.7c1.9,0,3.8,0,5.7,0c0,7,0,13.9,0,20.9c3.6,0,7.1,0,10.7,0c0,1.8,0,3.5,0,5.3c-5.5,0-10.9,0-16.4,0
		C0.9,23.2,0.9,14.5,0.9,5.7z"/>
	<path class="st0" d="M105.1,31.9c-1.7,0-3.3,0-5,0c0-0.8,0-1.5,0-2.3c0,0-0.1,0-0.1-0.1c0,0,0,0.1-0.1,0.1c-1.6,2-3.7,2.8-6.3,2.7
		c-1.9-0.1-3.6-0.7-5-2c-1.6-1.3-2.5-3.1-2.8-5.1c-0.5-2.8-0.1-5.5,1.4-7.9c1.2-1.9,2.9-3.2,5.2-3.6c1.8-0.3,3.5-0.1,5.2,0.7
		c0.7,0.3,1.3,0.8,1.7,1.4c0,0,0.1,0.1,0.1,0.1c0,0,0,0,0.1,0c0-3.4,0-6.8,0-10.2c1.9,0,3.7,0,5.5,0
		C105.1,14.5,105.1,23.2,105.1,31.9z M96.1,27.6c1.3,0,2.7-0.6,3.5-2.2c0.5-1,0.6-2,0.5-3.1c-0.2-1.7-1-2.9-2.6-3.5
		c-1-0.4-2.1-0.4-3.1-0.1c-1.3,0.3-2.2,1.1-2.7,2.3c-0.3,0.8-0.4,1.6-0.4,2.4C91.5,25.9,93.2,27.6,96.1,27.6z"/>
	<path class="st0" d="M48.5,5.7c1.8,0,3.6,0,5.5,0c0,5.2,0,10.4,0,15.5c0,0,0.1,0,0.1,0c0.1-0.2,0.3-0.3,0.4-0.5
		c1.9-2.2,3.8-4.3,5.6-6.5c0.1-0.1,0.3-0.2,0.4-0.2c2.1,0,4.2,0,6.3,0c0,0,0.1,0,0.2,0c-2.4,2.8-4.8,5.5-7.2,8.3
		c2.4,3.2,4.7,6.3,7.1,9.5c-0.1,0-0.2,0-0.3,0c-2.1,0-4.2,0-6.3,0c-0.2,0-0.4-0.1-0.5-0.3c-1.8-2.7-3.7-5.5-5.5-8.2
		c-0.1-0.1-0.1-0.2-0.3-0.3c0,2.9,0,5.8,0,8.7c-1.9,0-3.7,0-5.5,0C48.5,23.2,48.5,14.5,48.5,5.7z"/>
	<path class="st0" d="M84.3,24.7c-4.3,0-8.5,0-12.8,0c-0.1,1,1.1,2.5,2.3,3.1c1.5,0.7,4,0.6,5.7-1.8c1.3,0.9,2.5,1.9,3.9,2.8
		c-0.3,0.3-0.6,0.7-0.9,0.9c-2.1,1.9-4.6,2.7-7.5,2.5c-2.2-0.1-4.2-0.8-5.9-2.2c-1.8-1.5-2.9-3.5-3.2-5.8c-0.3-2.2,0-4.3,1.2-6.2
		c1.4-2.4,3.7-3.8,6.4-4.3c1.7-0.3,3.3-0.4,5,0.1c2.7,0.8,4.4,2.6,5.2,5.2c0.4,1.2,0.6,2.4,0.6,3.6C84.3,23.3,84.3,24,84.3,24.7z
		 M78.6,20.9c0.1-0.8-0.3-1.9-1.1-2.6c-2.1-1.7-5.4-0.6-6.1,2c0,0.2-0.1,0.3-0.1,0.5C73.8,20.9,76.2,20.9,78.6,20.9z"/>
	<path class="st0" d="M45.6,31.9c-1.8,0-3.7,0-5.5,0c0-0.1,0-0.2,0-0.4c0-3.1,0-6.1,0-9.2c0-0.6-0.1-1.3-0.3-1.9
		c-0.3-1.2-1.1-1.8-2.4-1.9c-1.6-0.1-2.7,0.6-3.2,2C34.1,21.1,34,21.6,34,22c-0.1,1-0.1,2-0.1,2.9c0,2.2,0,4.4,0,6.5
		c0,0.1,0,0.2,0,0.4c-1.8,0-3.7,0-5.5,0c0-5.9,0-11.8,0-17.8c1.8,0,3.5,0,5.3,0c0,0.8,0,1.6,0,2.4c0.3-0.4,0.5-0.7,0.8-1
		c1.3-1.4,2.9-2,4.8-1.9c0.7,0,1.5,0.1,2.1,0.3c1.9,0.5,3,1.7,3.6,3.6c0.4,1.2,0.5,2.5,0.5,3.8c0,3.5,0,6.9,0,10.4
		C45.6,31.7,45.6,31.8,45.6,31.9z"/>
	<path class="st0" d="M19.8,14.1c1.8,0,3.7,0,5.5,0c0,5.9,0,11.8,0,17.8c-1.8,0-3.7,0-5.5,0C19.8,26,19.8,20.1,19.8,14.1z"/>
	<path class="st0" d="M19.4,8.5c0-1.7,1.4-3.2,3.2-3.2c1.8,0,3.2,1.4,3.2,3.2c0,1.7-1.4,3.1-3.2,3.1C20.8,11.6,19.4,10.3,19.4,8.5z"
		/>
</g>
</svg>
