<?xml version="1.0" encoding="UTF-8"?>
<svg id="Layer_1" data-name="Layer 1" xmlns="http://www.w3.org/2000/svg" version="1.1" viewBox="0 0 200 56.2">
  <defs>
    <style>
      .cls-1 {
        fill-rule: evenodd;
      }

      .cls-1, .cls-2 {
        fill: #fff;
        stroke-width: 0px;
      }
    </style>
  </defs>
  <g id="Layer_2" data-name="Layer 2">
    <g id="Layer_1-2" data-name="Layer 1-2">
      <path class="cls-1" d="M99.6,15.4h5.5l1.8-5.3h-5.5l-1.8,5.3ZM95.3,28.2l3.5-10.5h5.6l-4.9,14.6h-5.5l1.4-4ZM95.3,23.2l1.3-3.9c0-.8-.4-1.5-1.2-1.6h-11.1l-3.3,10.3-1.4,4.2h5.5l3.5-10.5c.3-.9,1.8-.9,1.5,0l-3.5,10.5h5.5l3-9ZM81,24.1l1.3-4.3c.2-1-.4-1.9-1.3-2.2h-10.4c-.6,0-1.2.5-1.4,1.1l-2.5,7.5-1.3,3.9c-.2.7.3,1.9,1,2h12.1l.7-2.3c0-.5-.2-.9-.7-1h-6.6l.5-1.2h6c.6,0,1.5-.2,1.6-.8l.9-2.9ZM74.7,23.9c.3-.4.6-.8.7-1.3.2-.8,0-1.5-.3-1.5-.2,0-.3.1-.4.2-.3.4-.6.8-.7,1.3-.2.8,0,1.5.3,1.5.2,0,.3-.1.4-.2ZM66.7,20.1l1.4-2.5h-5.5l-5.1,9.2-.7-9.2h-5.5l1.2,14.6h7.7l6.7-12.1ZM41.2,27.8l3.4-10.2h5.5l-4.9,14.6h-5.5l1.5-4.4ZM41.2,23.3l1.4-4.3c.1-.6-.3-1.3-.9-1.4h-11.6l-3.8,11.9-.8,2.6h5.5l3.5-10.5h1.7l-1.3,3.8c.6,1.8,6.6.2,5.5.2l.8-2.4ZM41.2,5.7h4l-3.2,9.5h-14.7l-1-1.4-2.4-3.4,2.5-2.3,2.5-2.3h12.4ZM45.3,15.3h5.5l1.8-5.3h-5.5l-1.8,5.3ZM26.3,19.2l.8-2.6-.8-1-3.4-4.4-6.6,4.5-2.4,7.7-8.4,26.9h10.8l10-31ZM13.9,5.8h5l3.5,4.8-6.9,4.7H1.8l3.2-9.5h9Z"/>
      <path class="cls-2" d="M19.7,50.2l2.5-7.7h5.6l-.3.9h-4.6l-.8,2.4h4.3l-.3.9h-4.3l-.9,2.6h4.8l-.3.9h-5.8ZM26.9,50.2l2.5-7.8h1l2.1,6.1,2-6.1h1l-2.5,7.8h-1l-2.1-6.1-2,6.1h-1ZM39.3,47.2l.3-.9h3.3l-.9,2.9c-.6.4-1.2.7-1.9.9-.6.2-1.2.3-1.7.3-.7,0-1.3-.1-1.9-.5-.5-.3-.9-.8-1-1.4-.1-.7,0-1.4.2-2.1.3-.8.6-1.5,1.2-2.1.5-.6,1.1-1.1,1.8-1.5.7-.3,1.4-.5,2.2-.5.5,0,1,0,1.4.3.4.1.6.4.8.8.2.4.2.8.2,1.3l-1,.3c0-.3,0-.6-.1-.9-.1-.2-.3-.4-.6-.5-.3-.2-.7-.2-1-.2-.4,0-.9,0-1.3.2-.4.1-.7.3-1,.6-.3.2-.5.5-.7.8-.4.5-.6,1-.8,1.6-.2.5-.3,1.1-.2,1.7,0,.4.3.8.7,1,.4.2.9.4,1.3.3.5,0,1,0,1.5-.3.4-.1.8-.3,1.1-.5l.5-1.4h-2.3ZM43.3,50.2l2.5-7.7h1l-2.5,7.7h-1ZM46.1,50.2l2.5-7.7h1l2.1,6.1,2-6.1h1l-2.5,7.7h-1l-2.1-6.1-2,6.1h-1ZM53.9,50.2l2.5-7.7h5.6l-.3.9h-4.6l-.8,2.4h4.3l-.3.9h-4.3l-.9,2.6h4.8l-.3.9h-5.7ZM61.2,50.2l2.5-7.7h5.6l-.3.9h-4.6l-.8,2.4h4.3l-.3.9h-4.3l-.8,2.6h4.7l-.3.9h-5.7ZM68.4,50.2l2.5-7.7h3.4c.5,0,1,0,1.5.2.3.1.6.4.6.7,0,.4,0,.8,0,1.2-.2.6-.5,1-1,1.4-.5.4-1.2.7-1.9.7.2,0,.4.2.5.4.2.3.4.7.5,1l.6,2.1h-1.3l-.5-1.6c-.1-.4-.2-.7-.4-1,0-.2-.2-.4-.4-.5-.1,0-.3-.2-.4-.2-.2,0-.4,0-.6,0h-1.2l-1.1,3.4h-1ZM70.8,45.9h2.2c.4,0,.8,0,1.1-.2.3,0,.5-.2.7-.5.2-.2.3-.4.4-.7.1-.3,0-.6-.1-.9-.3-.3-.7-.4-1.1-.4h-2.5l-.8,2.6ZM76.3,50.2l2.5-7.7h1l-2.5,7.7h-1ZM79.1,50.2l2.5-7.7h1l2.1,6.1,2-6.1h1l-2.5,7.7h-1l-2.1-6.1-2,6.1h-1ZM91.5,47.2l.3-.9h3.3l-.9,2.9c-.6.4-1.2.7-1.9.9-.6.2-1.2.3-1.7.3-.7,0-1.3-.1-1.9-.5-.5-.3-.9-.8-1-1.4-.1-.7,0-1.4.2-2.1.3-.8.6-1.5,1.1-2.1.5-.6,1.1-1.1,1.8-1.5.7-.3,1.4-.5,2.2-.5.5,0,1,0,1.4.3.4.1.6.4.8.8.2.4.2.8.2,1.3l-1,.3c0-.3,0-.6-.1-.9-.1-.2-.3-.4-.6-.5-.3-.2-.7-.2-1-.2-.4,0-.9,0-1.3.2-.4.1-.7.3-1,.6-.3.2-.5.5-.7.8-.4.5-.6,1-.8,1.6-.2.5-.3,1.1-.2,1.7,0,.4.3.8.7,1,.4.2.9.4,1.3.3.5,0,1,0,1.5-.3.4-.1.8-.3,1.1-.5l.4-1.5h-2.3ZM102.9,49.3c-.4.3-.8.6-1.3.8-.4.2-.8.3-1.3.3-.7,0-1.3-.2-1.6-.8-.2-.5-.3-1,0-1.5.2-.5.5-.9.9-1.3.5-.4,1.1-.8,1.7-1-.2-.3-.3-.6-.4-1,0-.2,0-.5,0-.7.2-.5.5-.9.9-1.2.4-.3,1-.5,1.5-.5.4,0,.9.1,1.1.5.3.3.3.8.2,1.2-.4.9-1.1,1.6-2.1,1.9l.8,1.8c.3-.3.5-.7.7-1l.9.2c-.3.6-.8,1.2-1.2,1.7.2.4.5.9.8,1.2l-.9.8c-.4-.3-.6-.7-.8-1.2h0ZM102.3,45.3c.4-.2.7-.4,1-.6.2-.2.3-.4.4-.6.1-.2.1-.4,0-.6-.1-.2-.3-.3-.5-.2-.3,0-.5,0-.7.2-.2.1-.4.4-.5.6,0,.1,0,.3,0,.4,0,.1,0,.3.1.4l.2.5ZM102.6,48.5l-1-2.2c-.5.2-.9.5-1.3.8-.2.2-.4.5-.5.8-.1.3,0,.7,0,1,.2.3.5.6.9.5.4,0,.7-.2,1-.4.4-.2.7-.4,1-.7h0ZM108.7,50.2l2.5-7.7h1l-2.5,7.7h-1ZM111.6,50.2l2.5-7.7h1l2.1,6.1,2-6.1h1l-2.5,7.7h-1l-2.1-6.1-2,6.1h-1ZM119.4,50.2l2.5-7.7h2.7c.5,0,.9,0,1.3.1.4,0,.7.3,1,.5.3.4.5.8.5,1.3,0,.6,0,1.3-.3,1.8-.2.5-.4,1.1-.7,1.6-.2.4-.5.8-.9,1.1-.3.3-.6.5-.9.7-.3.2-.7.3-1,.4-.4,0-.9.1-1.3.1h-2.8ZM120.7,49.3h1.7c.4,0,.8,0,1.3-.1.3,0,.6-.2.8-.4.3-.3.6-.6.9-1,.3-.5.5-1,.7-1.5.2-.6.3-1.2.2-1.9,0-.4-.3-.7-.7-.9-.4-.1-.8-.2-1.3-.2h-1.6l-1.9,5.9ZM134.7,42.5h1l-1.4,4.5c-.2.7-.5,1.3-.9,1.9-.3.5-.8.8-1.3,1.1-.6.3-1.3.4-2,.4-.6,0-1.1,0-1.7-.4-.4-.2-.6-.6-.6-1,0-.7,0-1.3.3-1.9l1.4-4.5h1l-1.4,4.5c-.2.5-.3,1-.3,1.5,0,.3.2.6.4.7.3.2.7.3,1,.3.6,0,1.3-.1,1.8-.5.6-.5.9-1.2,1.1-2l1.4-4.5ZM135.4,47.7h1c0,.2,0,.6,0,.9.1.3.3.5.6.6.3.2.7.2,1.1.2.4,0,.7,0,1.1-.2.3,0,.6-.3.8-.5.2-.2.4-.4.4-.7,0-.2,0-.4,0-.6-.1-.2-.3-.4-.5-.5-.4-.2-.8-.3-1.3-.4-.5-.1-.9-.3-1.3-.5-.3-.2-.5-.4-.6-.7,0-.3,0-.7,0-1,.1-.4.4-.8.7-1.1.3-.3.8-.6,1.2-.8.5-.2,1-.3,1.5-.3.5,0,1,0,1.4.3.3.2.6.5.7.8.1.4.1.8,0,1.2h-1c.1-.3,0-.7-.2-1-.3-.3-.8-.4-1.2-.4-.5,0-1,0-1.5.3-.3.2-.6.5-.7.8,0,.2,0,.5,0,.7.4.3.9.5,1.4.5.5.1,1,.3,1.6.5.3.2.6.4.7.8.1.4.1.7,0,1.1-.2.4-.4.8-.7,1.2-.4.4-.8.7-1.3.8-.5.2-1,.3-1.6.3-.6,0-1.1,0-1.7-.3-.4-.2-.7-.5-.8-.9-.1-.5-.1-.9,0-1.4h0ZM144.2,50.2l2.2-6.8h-2.5l.3-.9h6.1l-.3.9h-2.6l-2.2,6.8h-1ZM148.8,50.2l2.5-7.7h3.5c.5,0,1,0,1.5.2.3.1.5.4.6.7.1.4,0,.8,0,1.2-.2.5-.5,1-1,1.4-.5.4-1.2.7-1.9.7.2,0,.4.2.5.4.2.3.4.7.5,1l.7,2.1h-1.3l-.5-1.6c-.1-.4-.2-.7-.4-1,0-.2-.2-.4-.4-.5-.1-.1-.2-.2-.4-.2-.2,0-.4,0-.6,0h-1.2l-1.2,3.4h-1ZM151.2,45.9h2.2c.4,0,.8,0,1.1-.1.3,0,.5-.2.8-.5.2-.2.3-.4.4-.7.1-.3,0-.6-.1-.9-.3-.3-.7-.4-1.1-.4h-2.5l-.8,2.6ZM156.8,50.2l2.5-7.7h1l-2.5,7.7h-1ZM159.6,50.2l2.5-7.7h5.6l-.3.9h-4.6l-.8,2.4h4.3l-.3.9h-4.3l-.8,2.6h4.7l-.3.9h-5.8ZM167.3,47.7h1c0,.2,0,.6,0,.9.1.3.3.5.6.6.3.2.7.2,1.1.2.4,0,.7,0,1.1-.2.3,0,.6-.3.8-.5.2-.2.4-.4.4-.6,0-.2,0-.4,0-.6-.1-.2-.3-.4-.5-.5-.4-.2-.8-.3-1.3-.4-.5,0-.9-.3-1.3-.5-.3-.2-.5-.4-.6-.7,0-.3,0-.7,0-1,.1-.4.4-.8.7-1.1.4-.3.8-.6,1.2-.8.5-.2,1-.3,1.5-.3.5,0,1,0,1.4.3.4.2.6.5.8.8.1.4.1.8,0,1.2h-1c.1-.3,0-.7-.2-1-.3-.3-.8-.4-1.2-.4-.5,0-1,0-1.5.3-.3.2-.6.5-.7.8-.1.2,0,.5,0,.7.4.3.9.5,1.4.5.5.1,1.1.3,1.6.5.3.2.6.4.7.8.1.4.1.7,0,1.1-.2.4-.4.8-.7,1.2-.4.4-.8.7-1.3.8-.5.2-1,.3-1.6.3-.6,0-1.1,0-1.7-.3-.4-.2-.7-.5-.8-.9-.2-.5-.2-1,0-1.4h0ZM177,50.2l2.5-7.7h1l-2.2,6.8h3.8l-.3.9h-4.8ZM184.2,50.2l2.2-6.8h-2.5l.3-.9h6.1l-.3.9h-2.6l-2.2,6.8h-1ZM188.9,50.2l2.5-7.7h2.7c.5,0,.9,0,1.3.1.4,0,.7.3,1,.5.3.4.5.8.5,1.3,0,.6,0,1.3-.3,1.8-.2.5-.4,1.1-.7,1.6-.2.4-.5.8-.9,1.1-.3.3-.6.5-.9.7-.3.2-.7.3-1,.4-.4,0-.9.1-1.3.1h-2.8ZM190.2,49.3h1.6c.4,0,.8,0,1.2-.1.3,0,.6-.2.8-.4.3-.3.6-.6.9-1,.3-.5.5-1,.7-1.5.2-.6.3-1.2.2-1.9,0-.4-.3-.7-.7-.9-.4-.1-.8-.2-1.3-.2h-1.6l-1.9,5.9ZM196.8,50.2l.4-1h1.1l-.4,1h-1.1Z"/>
    </g>
  </g>
</svg>