<svg xmlns="http://www.w3.org/2000/svg" viewBox="0 0 190.02 43.16"><defs><style>.cls-1{fill:#f58220;fill-rule:evenodd;}.cls-2{fill:#fff;}</style></defs><g id="Layer_2" data-name="Layer 2"><g id="Layer_1-2" data-name="Layer 1"><path class="cls-1" d="M94.58,9.29h5.36l1.7-5.08H96.28ZM90.42,21.67l3.42-10.2h5.37L94.47,25.55H89.11Zm0-4.79,1.28-3.82a1.44,1.44,0,0,0-1.13-1.59H79.85l-3.22,10-1.31,4.05h5.36L84.1,15.39c.29-.89,1.76-.89,1.46,0L82.14,25.55H87.5Zm-13.79.85,1.26-4.2a1.9,1.9,0,0,0-1.26-2.12H66.54a1.64,1.64,0,0,0-1.36,1.1l-2.43,7.28L61.48,23.6c-.19.7.25,1.85,1,1.95H74.21l.67-2.2a.82.82,0,0,0-.67-.92H67.86l.5-1.16h2.18l3.67,0c.59,0,1.42-.18,1.59-.75Zm-6.09-.21a2.8,2.8,0,0,0,.69-1.21c.23-.79.07-1.43-.27-1.43a.69.69,0,0,0-.42.22,2.87,2.87,0,0,0-.7,1.21c-.23.79-.06,1.43.29,1.43A.67.67,0,0,0,70.54,17.52Zm-7.79-3.66,1.32-2.39H58.71l-4.9,8.86-.72-8.86H47.73l1.15,14.08h7.41ZM38.12,21.32l3.31-9.85h5.36L42.06,25.55H36.7Zm0-4.36,1.39-4.14a1.15,1.15,0,0,0-.89-1.35H27.44L23.72,23l-.81,2.53h5.36l3.41-10.16h1.61L32.08,19c.62,1.71,6.41.22,5.28.24Zm0-17H42L38.91,9.15H24.68l-1-1.34L21.34,4.5l2.38-2.23L26.13,0Zm4,9.29h5.36l1.71-5.08H43.87ZM23.72,13l.82-2.54-.82-1L20.47,5.23,14.08,9.58,11.76,17,3.63,43H14.08Zm-12-13h4.79l3.34,4.65-6.68,4.5H0L3.05,0Z"/><path class="cls-2" d="M17.34,43l2.42-7.48h5.41l-.29.88H20.46l-.74,2.29h4.14l-.28.88H19.44l-.83,2.55h4.6l-.29.88Zm6.94,0L26.7,35.5h1l2,5.87,1.9-5.87h1L30.18,43h-1l-2-5.88L25.23,43Zm12-2.93.29-.88h3.17l-.9,2.77a8.45,8.45,0,0,1-1.79.88,5.41,5.41,0,0,1-1.69.29,3.46,3.46,0,0,1-1.85-.47,2,2,0,0,1-.92-1.37,4,4,0,0,1,.19-2,6.2,6.2,0,0,1,1.12-2,4.78,4.78,0,0,1,1.77-1.41,5,5,0,0,1,2.12-.46,3.36,3.36,0,0,1,1.38.26,1.51,1.51,0,0,1,.79.74,2.38,2.38,0,0,1,.17,1.22l-1,.25a2.09,2.09,0,0,0-.13-.9,1.06,1.06,0,0,0-.54-.52,2.07,2.07,0,0,0-1-.2,3.51,3.51,0,0,0-1.24.21,3.1,3.1,0,0,0-1,.54,4.13,4.13,0,0,0-.71.74,5,5,0,0,0-.77,1.51,3.47,3.47,0,0,0-.2,1.67,1.42,1.42,0,0,0,.68,1,2.48,2.48,0,0,0,1.29.33A4.1,4.1,0,0,0,36.94,42a4.52,4.52,0,0,0,1.1-.53l.45-1.39ZM40.14,43l2.42-7.48h1L41.13,43Zm2.73,0,2.42-7.48h1l2,5.87,1.9-5.87h1L48.76,43h-1l-2-5.88L43.82,43Zm7.58,0,2.42-7.48h5.41l-.29.88H53.57l-.74,2.29H57l-.28.88H52.55l-.83,2.55h4.6L56,43Zm7,0,2.42-7.48h5.41l-.28.88H60.55l-.75,2.29H64l-.29.88H59.52L58.7,42.1h4.59L63,43Zm7,0,2.42-7.48h3.32a3.89,3.89,0,0,1,1.45.2,1,1,0,0,1,.61.71,2,2,0,0,1-.06,1.13,2.75,2.75,0,0,1-.95,1.34,3.61,3.61,0,0,1-1.82.7,1.42,1.42,0,0,1,.48.37,3.46,3.46,0,0,1,.5,1L71,43H69.74l-.49-1.55a8.2,8.2,0,0,0-.38-1,1.31,1.31,0,0,0-.34-.5,1.06,1.06,0,0,0-.39-.21,3.22,3.22,0,0,0-.54,0H66.45L65.38,43Zm2.34-4.18h2.13A3.49,3.49,0,0,0,70,38.66a1.64,1.64,0,0,0,.72-.45,1.72,1.72,0,0,0,.42-.67.87.87,0,0,0-.1-.87,1.37,1.37,0,0,0-1.11-.34H67.53ZM72.09,43l2.42-7.48h1L73.08,43Zm2.73,0,2.42-7.48h1l2,5.87,1.9-5.87h1L80.71,43h-1l-2-5.88L75.77,43Zm12-2.93.28-.88h3.18l-.9,2.77a8.45,8.45,0,0,1-1.79.88,5.46,5.46,0,0,1-1.69.29,3.46,3.46,0,0,1-1.85-.47,2,2,0,0,1-.92-1.37,4,4,0,0,1,.19-2,6.36,6.36,0,0,1,1.11-2,4.94,4.94,0,0,1,1.77-1.41,5,5,0,0,1,2.13-.46,3.36,3.36,0,0,1,1.38.26,1.51,1.51,0,0,1,.79.74,2.38,2.38,0,0,1,.17,1.22l-1,.25a2.09,2.09,0,0,0-.13-.9,1.06,1.06,0,0,0-.54-.52,2.07,2.07,0,0,0-1-.2,3.51,3.51,0,0,0-1.24.21,3.1,3.1,0,0,0-1,.54,4.13,4.13,0,0,0-.71.74,5,5,0,0,0-.77,1.51,3.47,3.47,0,0,0-.2,1.67,1.42,1.42,0,0,0,.68,1,2.48,2.48,0,0,0,1.29.33A4.1,4.1,0,0,0,87.48,42a4.52,4.52,0,0,0,1.1-.53L89,40.05Zm11,2.05a4.84,4.84,0,0,1-1.23.76,3.27,3.27,0,0,1-1.24.25,1.65,1.65,0,0,1-1.58-.77,1.78,1.78,0,0,1-.08-1.42,2.83,2.83,0,0,1,.85-1.25,5.86,5.86,0,0,1,1.65-1,3.14,3.14,0,0,1-.37-.94,1.66,1.66,0,0,1,.06-.7,2.35,2.35,0,0,1,.91-1.17,2.5,2.5,0,0,1,1.49-.5,1.26,1.26,0,0,1,1.1.47A1.22,1.22,0,0,1,99.54,37a3.37,3.37,0,0,1-2,1.82l.79,1.71a5.87,5.87,0,0,0,.69-1l.89.21a7.91,7.91,0,0,1-1.19,1.61,3.54,3.54,0,0,0,.8,1.15l-.85.73A3.32,3.32,0,0,1,97.86,42.1Zm-.61-3.9a4,4,0,0,0,1-.62,1.45,1.45,0,0,0,.36-.59.66.66,0,0,0,0-.62.58.58,0,0,0-.52-.24,1.16,1.16,0,0,0-.7.24,1.18,1.18,0,0,0-.44.58,1.14,1.14,0,0,0,0,.37,1.37,1.37,0,0,0,.14.4Zm.27,3.17-1-2.08a5,5,0,0,0-1.27.82,2,2,0,0,0-.51.75,1.42,1.42,0,0,0,.06,1,.84.84,0,0,0,.87.49A2.23,2.23,0,0,0,96.6,42,3.2,3.2,0,0,0,97.52,41.37ZM103.46,43l2.42-7.48h1L104.45,43Zm2.73,0,2.42-7.48h1l2,5.87,1.91-5.87h1L112.08,43h-1l-2-5.88L107.14,43Zm7.56,0,2.42-7.48h2.58a5.88,5.88,0,0,1,1.3.11,1.66,1.66,0,0,1,.92.53,2.08,2.08,0,0,1,.47,1.28,4.85,4.85,0,0,1-.28,1.78,6.36,6.36,0,0,1-.69,1.51,5.52,5.52,0,0,1-.86,1.09,4.1,4.1,0,0,1-.9.68,3.85,3.85,0,0,1-1,.38,6,6,0,0,1-1.24.12ZM115,42.1h1.6a4.47,4.47,0,0,0,1.21-.14,2.49,2.49,0,0,0,.8-.39,3.73,3.73,0,0,0,.85-.94,5.91,5.91,0,0,0,.66-1.45,3.21,3.21,0,0,0,.2-1.8,1.21,1.21,0,0,0-.66-.84,3.22,3.22,0,0,0-1.23-.16h-1.58Zm13.61-6.6h1l-1.4,4.32a6.9,6.9,0,0,1-.83,1.8,3.51,3.51,0,0,1-1.27,1.07,4.05,4.05,0,0,1-1.89.42,2.94,2.94,0,0,1-1.6-.36,1.32,1.32,0,0,1-.61-1,4.81,4.81,0,0,1,.32-1.88l1.4-4.32h1l-1.4,4.32a4.4,4.4,0,0,0-.29,1.43.92.92,0,0,0,.4.72,1.78,1.78,0,0,0,1,.25,2.68,2.68,0,0,0,1.71-.5,3.9,3.9,0,0,0,1.08-1.9Zm.66,5.08,1-.08a1.76,1.76,0,0,0,0,.92,1.07,1.07,0,0,0,.57.58,2.32,2.32,0,0,0,1.07.22,3.06,3.06,0,0,0,1.06-.17,2,2,0,0,0,.79-.46,1.43,1.43,0,0,0,.42-.64.8.8,0,0,0,0-.61.93.93,0,0,0-.53-.44,8.82,8.82,0,0,0-1.22-.37,5.11,5.11,0,0,1-1.29-.47,1.28,1.28,0,0,1-.58-.69,1.61,1.61,0,0,1,0-.94,2.91,2.91,0,0,1,.67-1.06,3.16,3.16,0,0,1,1.18-.74,4.22,4.22,0,0,1,1.45-.26,3.16,3.16,0,0,1,1.39.27,1.36,1.36,0,0,1,.72.79,2,2,0,0,1,0,1.18l-1,.07a1.16,1.16,0,0,0-.17-1.07,1.53,1.53,0,0,0-1.19-.37,2.58,2.58,0,0,0-1.41.33,1.5,1.5,0,0,0-.67.8.68.68,0,0,0,.07.66,2.81,2.81,0,0,0,1.33.53,8.82,8.82,0,0,1,1.5.48,1.46,1.46,0,0,1,.72.76,1.72,1.72,0,0,1,0,1.07,3,3,0,0,1-.7,1.13,3.72,3.72,0,0,1-1.25.82,4.21,4.21,0,0,1-1.54.29,3.53,3.53,0,0,1-1.6-.3,1.49,1.49,0,0,1-.8-.89A2.2,2.2,0,0,1,129.29,40.58Zm8.44,2.4,2.13-6.6H137.4l.28-.88h5.93l-.28.88h-2.48L138.72,43Zm4.49,0,2.43-7.48H148a4,4,0,0,1,1.46.2,1.05,1.05,0,0,1,.6.71,1.92,1.92,0,0,1-.05,1.13,2.81,2.81,0,0,1-.95,1.34,3.61,3.61,0,0,1-1.82.7,1.66,1.66,0,0,1,.48.37,3.46,3.46,0,0,1,.5,1l.64,2h-1.25l-.48-1.55a8,8,0,0,0-.39-1,1.2,1.2,0,0,0-.34-.5,1,1,0,0,0-.38-.21,3.39,3.39,0,0,0-.54,0h-1.15L143.21,43Zm2.35-4.18h2.13a3.38,3.38,0,0,0,1.1-.14,1.67,1.67,0,0,0,.73-.45,1.72,1.72,0,0,0,.42-.67.87.87,0,0,0-.11-.87,1.36,1.36,0,0,0-1.1-.34h-2.37ZM149.93,43l2.42-7.48h1L150.92,43Zm2.75,0,2.43-7.48h5.41l-.29.88h-4.42l-.74,2.29h4.14l-.29.88h-4.14L154,42.1h4.59l-.28.88Zm7.4-2.4,1-.08a1.66,1.66,0,0,0,0,.92,1,1,0,0,0,.56.58,2.36,2.36,0,0,0,1.08.22,3,3,0,0,0,1.05-.17,2,2,0,0,0,.8-.46A1.43,1.43,0,0,0,165,41a.8.8,0,0,0,0-.61.89.89,0,0,0-.53-.44,8.52,8.52,0,0,0-1.21-.37,5,5,0,0,1-1.29-.47,1.28,1.28,0,0,1-.58-.69,1.61,1.61,0,0,1,0-.94,2.75,2.75,0,0,1,.66-1.06,3.29,3.29,0,0,1,1.19-.74,4.18,4.18,0,0,1,1.45-.26,3.08,3.08,0,0,1,1.38.27,1.34,1.34,0,0,1,.73.79,2,2,0,0,1,0,1.18l-1,.07a1.19,1.19,0,0,0-.17-1.07,1.53,1.53,0,0,0-1.19-.37,2.64,2.64,0,0,0-1.42.33,1.52,1.52,0,0,0-.66.8.65.65,0,0,0,.07.66,2.81,2.81,0,0,0,1.32.53,8.71,8.71,0,0,1,1.51.48,1.4,1.4,0,0,1,.71.76,1.65,1.65,0,0,1,0,1.07,2.89,2.89,0,0,1-.71,1.13,3.58,3.58,0,0,1-1.24.82,4.25,4.25,0,0,1-1.54.29,3.61,3.61,0,0,1-1.61-.3,1.51,1.51,0,0,1-.79-.89A2.2,2.2,0,0,1,160.08,40.58Zm9.39,2.4,2.42-7.48h1l-2.14,6.6h3.69l-.29.88Zm7,0,2.13-6.6h-2.46l.28-.88h5.94l-.29.88h-2.48L177.45,43Zm4.48,0,2.42-7.48h2.58a5.88,5.88,0,0,1,1.3.11,1.66,1.66,0,0,1,.92.53,2,2,0,0,1,.47,1.28,4.85,4.85,0,0,1-.28,1.78,6.36,6.36,0,0,1-.69,1.51,5.52,5.52,0,0,1-.86,1.09,4.1,4.1,0,0,1-.9.68,3.85,3.85,0,0,1-1,.38,5.93,5.93,0,0,1-1.24.12Zm1.28-.88h1.59A4.41,4.41,0,0,0,185,42a2.39,2.39,0,0,0,.8-.39,3.73,3.73,0,0,0,.85-.94,6.31,6.31,0,0,0,.67-1.45,3.28,3.28,0,0,0,.19-1.8,1.21,1.21,0,0,0-.66-.84,3.19,3.19,0,0,0-1.23-.16h-1.57Zm6.41.88.34-1H190l-.34,1Z"/></g></g></svg>